# File created by Blade
# Date/Time:  Tue Jan 27 20:02:37 2015
# Frame Rate: 120.000 fps
#------------------------------------------------------
:FULLY-SPECIFIED
:DEGREES
3958
root 7.404413 33.033551 3.084963 17.979004 -15.203970 -14.056712
Spine 5.346068 10.505466 0.906328
Head -15.112226 1.057061 10.436390
LeftShoulder -11.012144 -3.751355 30.808802
LeftArm -5.696909 -23.845371 -80.438393
LeftForeArm -46.710590 0.000000 121.783109
LeftHand 9.449128 0.000000 -46.812291
LeftHandThumb1 -26.253704 0.000000 33.147579
RightShoulder -12.850840 -5.406756 -24.424708
RightArm 28.692322 -47.559759 82.055211
RightForeArm -17.562317 -0.000000 16.449233
RightHand 16.408944 -0.000000 10.225469
RightHandThumb1 -24.326973 -0.000000 -32.862282
LeftUpLeg -8.858984 11.325315 1.437928
LeftLeg -4.715935 -0.000000 0.000000
LeftFoot -16.606523 20.194815 -16.402039
LeftToeBase 21.523351 -0.000000 -0.000000
RightUpLeg -24.693838 -0.499535 11.375398
RightLeg 83.679896 -0.000000 -0.000000
RightFoot 27.078111 -29.193244 31.565848
RightToeBase 13.359426 -0.000000 -0.000000
3959
root 7.400350 33.019478 3.095044 17.618130 -14.892766 -13.833918
Spine 5.452730 10.349241 0.904776
Head -14.910199 0.915519 10.537454
LeftShoulder -11.063532 -3.736966 30.795871
LeftArm -5.544011 -23.663758 -80.565853
LeftForeArm -46.677705 -0.000000 121.588370
LeftHand 9.496023 -0.000000 -46.992593
LeftHandThumb1 -26.253704 0.000000 33.147579
RightShoulder -12.824873 -5.463697 -24.378622
RightArm 28.477574 -47.357833 82.187197
RightForeArm -17.549961 -0.000000 16.383021
RightHand 16.513594 -0.000000 10.502855
RightHandThumb1 -24.326973 -0.000000 -32.862282
LeftUpLeg -8.583030 10.977694 1.362510
LeftLeg -4.739266 -0.000000 0.000000
LeftFoot -16.569993 20.238471 -16.385297
LeftToeBase 21.591389 -0.000000 -0.000000
RightUpLeg -25.054935 -0.387387 11.438695
RightLeg 82.991247 -0.000000 -0.000000
RightFoot 27.106373 -29.023330 31.525925
RightToeBase 12.541100 -0.000000 -0.000000
3960
root 7.395488 33.006718 3.102447 17.290888 -14.552054 -13.608698
Spine 5.513636 10.227165 0.901834
Head -14.720588 0.712747 10.619264
LeftShoulder -11.056330 -3.796472 30.791412
LeftArm -5.453592 -23.441447 -80.657009
LeftForeArm -46.693920 -0.000000 121.405553
LeftHand 9.514023 0.000000 -46.968858
LeftHandThumb1 -26.253704 0.000000 33.147579
RightShoulder -12.817331 -5.561164 -24.324152
RightArm 28.342451 -47.300618 82.203268
RightForeArm -17.533143 -0.000000 16.336535
RightHand 16.531938 -0.000000 10.280160
RightHandThumb1 -24.326973 -0.000000 -32.862282
LeftUpLeg -8.373072 10.605067 1.292111
LeftLeg -4.711179 -0.000000 0.000000
LeftFoot -16.563204 20.253781 -16.416743
LeftToeBase 21.622739 -0.000000 -0.000000
RightUpLeg -25.440936 -0.398493 11.482617
RightLeg 82.342475 -0.000000 -0.000000
RightFoot 26.954112 -28.801734 31.307084
RightToeBase 12.441630 -0.000000 -0.000000
3961
root 7.385754 32.993210 3.114865 16.945755 -14.214939 -13.431438
Spine 5.593510 10.155915 0.940483
Head -14.525138 0.445766 10.707755
LeftShoulder -11.036497 -3.836913 30.786465
LeftArm -5.324863 -23.219407 -80.792566
LeftForeArm -46.610387 -0.000000 121.242324
LeftHand 9.527759 0.000000 -47.086067
LeftHandThumb1 -26.253704 0.000000 33.147579
RightShoulder -12.839480 -5.666227 -24.281128
RightArm 28.212720 -47.332349 82.161078
RightForeArm -17.473476 0.000000 16.367618
RightHand 16.508561 -0.000000 10.871046
RightHandThumb1 -24.326973 -0.000000 -32.862282
LeftUpLeg -8.076441 10.251904 1.263639
LeftLeg -4.781130 -0.000000 0.000000
LeftFoot -16.536023 20.320234 -16.422144
LeftToeBase 21.626814 -0.000000 -0.000000
RightUpLeg -25.758689 -0.321972 11.575216
RightLeg 81.723392 -0.000000 -0.000000
RightFoot 26.456017 -28.721520 31.720067
RightToeBase 12.046392 -0.000000 -0.000000
3962
root 7.377069 32.982069 3.123434 16.608243 -13.848086 -13.237291
Spine 5.683222 10.017529 0.971342
Head -14.322608 0.217983 10.770707
LeftShoulder -11.027359 -3.860132 30.753245
LeftArm -5.194219 -23.046306 -80.900767
LeftForeArm -46.532442 -0.000000 121.092741
LeftHand 9.549377 -0.000000 -47.039552
LeftHandThumb1 -26.253704 0.000000 33.147579
RightShoulder -12.822721 -5.787986 -24.258387
RightArm 27.977715 -47.022578 82.404716
RightForeArm -17.436953 -0.000000 16.283633
RightHand 16.558321 0.000000 10.530616
RightHandThumb1 -24.326973 -0.000000 -32.862282
LeftUpLeg -7.850178 9.890888 1.218578
LeftLeg -4.753850 -0.000000 0.000000
LeftFoot -16.513030 20.366701 -16.390137
LeftToeBase 21.564283 -0.000000 -0.000000
RightUpLeg -26.087612 -0.269670 11.641214
RightLeg 81.141295 -0.000000 -0.000000
RightFoot 25.633503 -28.712420 32.337532
RightToeBase 13.870394 -0.000000 -0.000000
3963
root 7.363954 32.972987 3.128641 16.327372 -13.484528 -13.100654
Spine 5.719681 9.928525 1.036092
Head -14.133186 -0.025914 10.824765
LeftShoulder -10.992100 -3.921514 30.745893
LeftArm -5.118121 -22.862476 -81.013003
LeftForeArm -46.448920 -0.000000 120.945242
LeftHand 9.515807 -0.000000 -47.100948
LeftHandThumb1 -26.253704 0.000000 33.147579
RightShoulder -12.828168 -5.884834 -24.236954
RightArm 27.731748 -46.828854 82.594240
RightForeArm -17.408452 0.000000 16.238246
RightHand 16.525417 -0.000000 10.313426
RightHandThumb1 -24.326973 -0.000000 -32.862282
LeftUpLeg -7.649531 9.527231 1.234835
LeftLeg -4.757640 -0.000000 0.000000
LeftFoot -16.498687 20.409966 -16.382934
LeftToeBase 21.550012 -0.000000 -0.000000
RightUpLeg -26.412708 -0.206342 11.757755
RightLeg 80.544727 -0.000000 -0.000000
RightFoot 25.057974 -28.450023 32.726874
RightToeBase 15.326423 -0.000000 -0.000000
3964
root 7.351626 32.963449 3.138679 16.038977 -13.162991 -12.954370
Spine 5.748594 9.822076 1.063672
Head -13.918368 -0.205982 10.879762
LeftShoulder -11.003390 -3.988866 30.743800
LeftArm -5.097277 -22.686924 -81.096350
LeftForeArm -46.383689 -0.000000 120.817967
LeftHand 9.575303 -0.000000 -47.144502
LeftHandThumb1 -26.253704 0.000000 33.147579
RightShoulder -12.817127 -6.031112 -24.186302
RightArm 27.684296 -46.750542 82.594950
RightForeArm -17.321709 0.000000 16.174027
RightHand 16.522251 -0.000000 10.344470
RightHandThumb1 -24.326973 -0.000000 -32.862282
LeftUpLeg -7.418924 9.243488 1.220462
LeftLeg -4.782416 -0.000000 0.000000
LeftFoot -16.480546 20.382836 -16.409434
LeftToeBase 21.610080 -0.000000 -0.000000
RightUpLeg -26.724287 -0.095559 11.843464
RightLeg 80.028958 -0.000000 -0.000000
RightFoot 24.591285 -28.117509 32.898383
RightToeBase 14.874345 -0.000000 -0.000000
